<svg width="88" height="88" viewBox="0 0 88 88" fill="none" xmlns="http://www.w3.org/2000/svg">
<path d="M72.5309 0H15.4691C6.92577 0 0 6.92577 0 15.4691V72.5309C0 81.0742 6.92577 88 15.4691 88H72.5309C81.0742 88 88 81.0742 88 72.5309V15.4691C88 6.92577 81.0742 0 72.5309 0Z" fill="url(#paint0_linear_7_214)"/>
<path d="M54.604 38.6949V38.6194V38.6949ZM54.5097 38.9966V38.9526V38.9966ZM54.3777 39.3863V39.4429L54.4154 39.3423C54.4039 39.3579 54.3913 39.3725 54.3777 39.3863V39.3863ZM54.2394 39.7571L54.2017 39.8452V39.8892C54.2017 39.9457 54.1514 40.0086 54.1263 40.0714C54.1011 40.1343 54.0697 40.2097 54.0383 40.2789C54.02 40.3261 53.999 40.3723 53.9754 40.4171C53.8246 40.7566 53.6612 41.0834 53.4852 41.404C53.4349 41.492 53.3909 41.58 53.3406 41.6617L53.1772 41.932C53.1269 42.02 53.0703 42.108 53.0137 42.196C52.9572 42.284 52.9194 42.3469 52.8691 42.4223C52.8439 42.4564 52.8208 42.4921 52.8 42.5291L52.7057 42.6548C52.6863 42.6907 52.6631 42.7245 52.6366 42.7554L52.5234 42.9126C52.4229 43.0572 52.316 43.1954 52.2092 43.3274L52.0206 43.5663L51.9703 43.6291C52.14 43.4217 52.3097 43.208 52.4732 43.0006L52.5737 42.8623C52.6932 42.6989 52.8126 42.5229 52.9257 42.3531L53.02 42.2086L53.2337 41.8628L53.3092 41.7246L53.4034 41.5674L53.4914 41.4103L53.5732 41.2469C53.6062 41.1945 53.6356 41.1398 53.6612 41.0834C53.7743 40.8697 53.8812 40.6497 53.9817 40.4234C54.032 40.3166 54.076 40.2034 54.1263 40.0903C54.1766 39.9772 54.2331 39.82 54.2834 39.688C54.2583 39.6943 54.252 39.7257 54.2394 39.7571V39.7571ZM51.9012 43.6857L51.9514 43.6291L51.9012 43.6857ZM51.8634 43.7297L51.7943 43.8114L51.7314 43.8869L51.6874 43.9372L51.744 43.8743L51.8006 43.8051L51.876 43.7171L51.8634 43.7297ZM51.6246 44.0063L51.5617 44.0817L51.656 43.9686L51.6246 44.0063ZM54.7674 38.0789L54.7297 38.2297V38.0223L54.7674 38.0789ZM54.8869 37.5634V37.3749C54.956 37.4377 54.912 37.5006 54.8931 37.5634H54.8869ZM49.4434 48.796C49.3744 48.8416 49.3031 48.8836 49.2297 48.9217C49.1385 48.9689 49.0687 49.0493 49.0348 49.1463C49.0009 49.2433 49.0054 49.3496 49.0474 49.4434L49.1543 49.6823C49.0881 49.5238 49.0815 49.3467 49.1358 49.1837C49.1901 49.0208 49.3016 48.883 49.4497 48.796H49.4434ZM47.7777 52.4103L48.5572 54.164L47.7777 52.4103Z" fill="black"/>
<path d="M57.1434 30.9949C57.0554 30.6051 56.9486 30.2091 56.8291 29.8194C55.7915 26.4883 53.7174 23.5755 50.909 21.5053C48.1005 19.4351 44.7044 18.3158 41.2154 18.3103H24.5394C23.4186 18.3103 22.3435 18.7551 21.5504 19.5471C20.7572 20.3391 20.3108 21.4134 20.3091 22.5343V65.7549C20.3108 66.8757 20.7572 67.9501 21.5504 68.7421C22.3435 69.534 23.4186 69.9789 24.5394 69.9789H55.5846L58.3251 76.1703C58.5402 76.6584 58.8922 77.0738 59.3384 77.3661C59.7846 77.6584 60.306 77.815 60.8394 77.8171C61.1191 77.8163 61.3969 77.7718 61.6629 77.6852C63.2294 77.1871 64.6239 76.2578 65.6867 75.0038C66.7495 73.7498 67.4375 72.2218 67.672 70.5949L67.7097 70.3623L57.1434 30.9949ZM24.5394 67.6217C24.0393 67.6217 23.5597 67.423 23.206 67.0694C22.8524 66.7157 22.6537 66.2361 22.6537 65.736V22.5343C22.6537 22.0342 22.8524 21.5545 23.206 21.2009C23.5597 20.8472 24.0393 20.6486 24.5394 20.6486H41.2154C44.2005 20.6541 47.1059 21.6125 49.5084 23.3842C51.9109 25.1558 53.6851 27.6482 54.5726 30.4983C54.6794 30.8377 54.7674 31.1834 54.8491 31.5229C54.9563 31.9917 55.0381 32.4658 55.0943 32.9434C55.1278 33.2116 55.1529 33.4882 55.1697 33.7731V35.816V35.9857C55.163 36.0973 55.1504 36.2086 55.132 36.3189C55.1347 36.3733 55.1347 36.4278 55.132 36.4823C55.135 36.5367 55.135 36.5913 55.132 36.6457C55.1245 36.76 55.1077 36.8736 55.0817 36.9852C55.0629 37.0983 55.0817 37.1423 55.0377 37.2177V37.576L55 37.7269C55.0029 37.7456 55.0029 37.7647 55 37.7834V38.0286L54.9623 38.1857V38.2926L54.8869 38.5377C54.8896 38.5628 54.8896 38.5881 54.8869 38.6131V38.6949C54.8833 38.7178 54.8833 38.7411 54.8869 38.764L54.8491 38.8834V38.9274C54.8177 39.028 54.7863 39.1286 54.7486 39.2229C54.7109 39.3172 54.7486 39.2229 54.7486 39.2543L54.7109 39.3548C54.6354 39.5686 54.5537 39.776 54.472 39.9834C54.4217 40.0966 54.3777 40.2097 54.3274 40.3166C54.2269 40.5429 54.12 40.7629 54.0069 40.9766C53.9813 41.033 53.9519 41.0876 53.9189 41.14L53.8371 41.3034L53.7491 41.4606L53.6548 41.6177L53.5794 41.756L53.3657 42.1017L53.2714 42.2463C53.1583 42.416 53.0388 42.592 52.9194 42.7554L52.8189 42.8937C52.6554 43.1137 52.4857 43.3274 52.316 43.5223L52.2657 43.5789L52.1903 43.6668L52.14 43.7297L52.0834 43.7926L52.052 43.824L51.9577 43.9372L51.876 44.0251C51.8609 44.0434 51.844 44.0603 51.8257 44.0754L51.7817 44.1257L51.6811 44.2326L51.4926 44.4211L51.2663 44.6412L51.04 44.8548L50.8011 45.0623L50.5497 45.2823L50.4177 45.3829L50.2354 45.5274L49.8709 45.804C49.4969 46.0778 49.1087 46.3317 48.708 46.5646C48.0593 46.9459 47.573 47.552 47.3413 48.268C47.1096 48.9839 47.1485 49.76 47.4509 50.4492L48.2303 52.2154L49.0097 53.9691L49.0663 54.1011L54.9623 67.4269L24.5394 67.6217ZM60.94 75.4286C60.8464 75.4585 60.745 75.4525 60.6556 75.4119C60.5661 75.3712 60.495 75.2988 60.456 75.2086L58.1429 69.9726L49.1606 49.6571L49.0537 49.4183C49.0117 49.3245 49.0072 49.2182 49.0411 49.1212C49.075 49.0242 49.1447 48.9438 49.236 48.8966C49.3093 48.8584 49.3807 48.8164 49.4497 48.7709V48.7709L49.6823 48.6326L49.9714 48.4503L50.0657 48.3937L50.2668 48.2554L50.3611 48.1926L50.5937 48.0354L50.7446 47.9286L50.8451 47.8531C53.7626 45.719 55.8929 42.6805 56.9046 39.2103L65.2771 70.4691C65.0719 71.6114 64.5599 72.6764 63.7959 73.55C63.0319 74.4236 62.0447 75.0729 60.94 75.4286V75.4286Z" fill="black"/>
<path d="M65.2834 70.4943C65.0746 71.6349 64.5596 72.6972 63.7934 73.5675C63.0271 74.4377 62.0386 75.0833 60.9337 75.4349C60.841 75.4645 60.7406 75.4583 60.6522 75.4176C60.5637 75.3769 60.4938 75.3045 60.456 75.2148L58.1429 69.9789L49.1606 49.6571C49.0938 49.4994 49.0863 49.3228 49.1394 49.1599C49.1925 48.9971 49.3027 48.8589 49.4497 48.7709V48.7709L49.6823 48.6326L49.9714 48.4503L50.0594 48.3937L50.2669 48.2554L50.3611 48.1926L50.5937 48.0354L50.7446 47.9286L50.8452 47.8531C53.7626 45.719 55.8929 42.6805 56.9046 39.2103L65.2834 70.4943Z" fill="white"/>
<path d="M54.736 38.2297V38.1166C54.7379 38.1543 54.7379 38.192 54.736 38.2297V38.2297ZM54.8931 37.5634V37.3749C54.956 37.4377 54.912 37.5006 54.8931 37.5634Z" fill="white"/>
<path d="M54.736 38.2297C54.7381 38.1899 54.7381 38.1501 54.736 38.1103V38.2297ZM54.604 38.6949C54.6036 38.6588 54.6146 38.6236 54.6354 38.5943V38.5943V38.544L54.604 38.6949Z" fill="white"/>
<path d="M55.2011 34.6846V35.8349V36.0046C55.1944 36.1162 55.1819 36.2274 55.1634 36.3377C55.1662 36.3922 55.1662 36.4467 55.1634 36.5011C55.1665 36.5556 55.1665 36.6101 55.1634 36.6646C55.1559 36.7789 55.1391 36.8924 55.1131 37.004C55.0943 37.1171 55.1131 37.1611 55.0691 37.2366V37.356C55.0758 37.422 55.0603 37.4883 55.0251 37.5446V37.5949L54.9874 37.7457C54.9904 37.7644 54.9904 37.7836 54.9874 37.8023V38.06L54.9497 38.2108V38.3177L54.8931 38.5126L54.8429 38.676V38.72C54.8393 38.7429 54.8393 38.7662 54.8429 38.7892L54.8051 38.9086V38.9463V39.0091L54.7297 39.2166V39.3486C54.7331 39.3715 54.7309 39.3949 54.7232 39.4168C54.7155 39.4387 54.7027 39.4584 54.6857 39.4743L54.648 39.5749V39.6628L54.6103 39.7508V39.7949C54.6103 39.8514 54.56 39.9143 54.5349 39.9771C54.5097 40.04 54.4783 40.1154 54.4469 40.1846C54.4285 40.2318 54.4075 40.278 54.384 40.3229C54.2331 40.6623 54.0697 40.9891 53.8937 41.3097C53.8434 41.3977 53.7994 41.4857 53.7491 41.5674L53.5857 41.8377C53.5354 41.9257 53.4789 42.0137 53.4223 42.1017C53.3657 42.1897 53.328 42.2526 53.2777 42.328C53.2525 42.3622 53.2294 42.3978 53.2086 42.4349L53.1143 42.5606C53.0949 42.5965 53.0717 42.6302 53.0452 42.6611L52.932 42.8183C52.8314 42.9629 52.7246 43.1012 52.6177 43.2332L52.4291 43.472L52.3789 43.5349H52.3474L52.2783 43.6166L52.2154 43.692L52.1714 43.7423L52.14 43.7737L52.1086 43.8114L52.0457 43.8869L51.964 43.9749L51.8697 44.0754L51.7691 44.1823L51.5806 44.3709L51.3543 44.5909L51.128 44.8046L50.8891 45.012L50.6377 45.232L50.5057 45.3326L50.3234 45.4771L49.9589 45.7537C49.5849 46.0275 49.1967 46.2814 48.796 46.5143L48.6074 46.6211C48.0063 46.9558 47.5519 47.503 47.3333 48.1553C47.1147 48.8077 47.1476 49.5181 47.4257 50.1474L47.5389 50.3989L48.3183 52.1651L49.0977 53.9189L49.1543 54.0508L55.0503 67.3766H24.5394C24.0393 67.3766 23.5597 67.1779 23.206 66.8243C22.8524 66.4706 22.6537 65.991 22.6537 65.4909V22.5343C22.6537 22.0342 22.8524 21.5545 23.206 21.2009C23.5597 20.8472 24.0393 20.6486 24.5394 20.6486H41.2154C44.2005 20.6541 47.1059 21.6125 49.5084 23.3842C51.9109 25.1558 53.6851 27.6482 54.5726 30.4983C54.6794 30.8377 54.7674 31.1834 54.8491 31.5229C54.9563 31.9917 55.0381 32.4658 55.0943 32.9434C55.1278 33.2116 55.153 33.4882 55.1697 33.7731C55.1886 34.0811 55.2011 34.3766 55.2011 34.6846Z" fill="white"/>
<path d="M48.2617 46.7594L48.0731 46.8663C47.472 47.2009 47.0176 47.7481 46.799 48.4005C46.5804 49.0528 46.6134 49.7633 46.8914 50.3926L47.0046 50.644C46.7023 49.9549 46.6633 49.1788 46.895 48.4628C47.1267 47.7469 47.613 47.1408 48.2617 46.7594V46.7594ZM47.784 52.4166L48.5634 54.1703L47.784 52.4166Z" fill="black"/>
<path d="M32.7863 59.7143C32.7863 59.9643 32.6869 60.2042 32.5101 60.381C32.3333 60.5578 32.0935 60.6571 31.8434 60.6571H29.9577C29.7264 60.6304 29.513 60.5195 29.3581 60.3457C29.2032 60.1718 29.1176 59.9471 29.1176 59.7143C29.1176 59.4814 29.2032 59.2567 29.3581 59.0829C29.513 58.909 29.7264 58.7982 29.9577 58.7714H31.8434C32.093 58.7731 32.3318 58.873 32.5083 59.0494C32.6848 59.2259 32.7846 59.4647 32.7863 59.7143Z" fill="#AFAFAF"/>
<path d="M34.672 37.3937C34.672 37.6438 34.5727 37.8836 34.3959 38.0604C34.219 38.2372 33.9792 38.3366 33.7291 38.3366H29.9577C29.7077 38.3366 29.4678 38.2372 29.291 38.0604C29.1142 37.8836 29.0149 37.6438 29.0149 37.3937C29.0149 37.1436 29.1142 36.9038 29.291 36.727C29.4678 36.5502 29.7077 36.4509 29.9577 36.4509H33.7291C33.9792 36.4509 34.219 36.5502 34.3959 36.727C34.5727 36.9038 34.672 37.1436 34.672 37.3937V37.3937Z" fill="#AFAFAF"/>
<path d="M45.0434 37.4C45.0434 37.6501 44.9441 37.8899 44.7673 38.0667C44.5905 38.2435 44.3506 38.3429 44.1006 38.3429H41.272C41.0219 38.3429 40.7821 38.2435 40.6053 38.0667C40.4285 37.8899 40.3291 37.6501 40.3291 37.4C40.3291 37.1499 40.4285 36.9101 40.6053 36.7333C40.7821 36.5565 41.0219 36.4571 41.272 36.4571H44.2326C44.4591 36.4892 44.6663 36.6025 44.8155 36.776C44.9647 36.9494 45.0457 37.1712 45.0434 37.4V37.4Z" fill="#AFAFAF"/>
<path d="M45.0434 34.1817C45.0434 34.4318 44.9441 34.6716 44.7673 34.8484C44.5905 35.0252 44.3506 35.1246 44.1006 35.1246H34.672C34.4219 35.1246 34.1821 35.0252 34.0053 34.8484C33.8285 34.6716 33.7291 34.4318 33.7291 34.1817C33.7291 33.9317 33.8285 33.6918 34.0053 33.515C34.1821 33.3382 34.4219 33.2389 34.672 33.2389H44.1006C44.3506 33.2389 44.5905 33.3382 44.7673 33.515C44.9441 33.6918 45.0434 33.9317 45.0434 34.1817V34.1817Z" fill="#AFAFAF"/>
<path d="M43.2771 28.82C43.278 29.1298 43.2176 29.4367 43.0994 29.723C42.9813 30.0094 42.8077 30.2695 42.5886 30.4886C42.3696 30.7076 42.1094 30.8813 41.823 30.9994C41.5367 31.1176 41.2298 31.178 40.92 31.1771H31.372C30.7469 31.1771 30.1473 30.9288 29.7053 30.4867C29.2632 30.0447 29.0149 29.4451 29.0149 28.82C29.0149 28.1948 29.2632 27.5953 29.7053 27.1533C30.1473 26.7112 30.7469 26.4628 31.372 26.4628H40.92C41.5452 26.4628 42.1447 26.7112 42.5868 27.1533C43.0288 27.5953 43.2771 28.1948 43.2771 28.82Z" fill="#AFAFAF"/>
<path d="M44.9491 43.7674C44.9491 44.0175 44.8498 44.2573 44.673 44.4341C44.4962 44.611 44.2563 44.7103 44.0063 44.7103H35.6149C35.3648 44.7103 35.125 44.611 34.9482 44.4341C34.7713 44.2573 34.672 44.0175 34.672 43.7674C34.672 43.5174 34.7713 43.2775 34.9482 43.1007C35.125 42.9239 35.3648 42.8246 35.6149 42.8246H44.0063C44.2563 42.8246 44.4962 42.9239 44.673 43.1007C44.8498 43.2775 44.9491 43.5174 44.9491 43.7674V43.7674Z" fill="#AFAFAF"/>
<path d="M40.3291 40.5806C40.3291 40.8306 40.2298 41.0705 40.053 41.2473C39.8762 41.4241 39.6364 41.5234 39.3863 41.5234H29.9577C29.7077 41.5234 29.4678 41.4241 29.291 41.2473C29.1142 41.0705 29.0149 40.8306 29.0149 40.5806C29.0149 40.3305 29.1142 40.0907 29.291 39.9139C29.4678 39.737 29.7077 39.6377 29.9577 39.6377H39.3863C39.6364 39.6377 39.8762 39.737 40.053 39.9139C40.2298 40.0907 40.3291 40.3305 40.3291 40.5806V40.5806Z" fill="#AFAFAF"/>
<path d="M32.7863 50.1663C32.7863 50.4163 32.687 50.6562 32.5101 50.833C32.3333 51.0098 32.0935 51.1091 31.8434 51.1091H29.9577C29.7077 51.1091 29.4678 51.0098 29.291 50.833C29.1142 50.6562 29.0149 50.4163 29.0149 50.1663C29.0149 49.9162 29.1142 49.6764 29.291 49.4996C29.4678 49.3228 29.7077 49.2234 29.9577 49.2234H31.8434C32.0935 49.2234 32.3333 49.3228 32.5101 49.4996C32.687 49.6764 32.7863 49.9162 32.7863 50.1663V50.1663Z" fill="#AFAFAF"/>
<path d="M40.3291 50.1663C40.3291 50.4163 40.2298 50.6562 40.053 50.833C39.8762 51.0098 39.6363 51.1091 39.3863 51.1091H34.672C34.4219 51.1091 34.1821 51.0098 34.0053 50.833C33.8285 50.6562 33.7291 50.4163 33.7291 50.1663C33.7291 49.9162 33.8285 49.6764 34.0053 49.4996C34.1821 49.3228 34.4219 49.2234 34.672 49.2234H39.3863C39.6363 49.2234 39.8762 49.3228 40.053 49.4996C40.2298 49.6764 40.3291 49.9162 40.3291 50.1663V50.1663Z" fill="#FF1D25"/>
<path d="M44.9491 50.1663C44.9491 50.4163 44.8498 50.6562 44.673 50.833C44.4962 51.0098 44.2564 51.1091 44.0063 51.1091H42.2149C41.9648 51.1091 41.725 51.0098 41.5482 50.833C41.3713 50.6562 41.272 50.4163 41.272 50.1663C41.272 49.9162 41.3713 49.6764 41.5482 49.4996C41.725 49.3228 41.9648 49.2234 42.2149 49.2234H44.0063C44.2564 49.2234 44.4962 49.3228 44.673 49.4996C44.8498 49.6764 44.9491 49.9162 44.9491 50.1663Z" fill="#AFAFAF"/>
<path d="M45.0434 46.9794C45.0434 47.2295 44.9441 47.4693 44.7673 47.6461C44.5905 47.8229 44.3506 47.9223 44.1006 47.9223H40.3291C40.0791 47.9223 39.8393 47.8229 39.6625 47.6461C39.4856 47.4693 39.3863 47.2295 39.3863 46.9794C39.3863 46.7294 39.4856 46.4895 39.6625 46.3127C39.8393 46.1359 40.0791 46.0366 40.3291 46.0366H44.1006C44.3506 46.0366 44.5905 46.1359 44.7673 46.3127C44.9441 46.4895 45.0434 46.7294 45.0434 46.9794V46.9794Z" fill="#AFAFAF"/>
<path d="M38.4434 46.9794C38.4434 47.2295 38.3441 47.4693 38.1673 47.6461C37.9905 47.8229 37.7506 47.9223 37.5006 47.9223H29.9577C29.7077 47.9223 29.4678 47.8229 29.291 47.6461C29.1142 47.4693 29.0149 47.2295 29.0149 46.9794C29.0149 46.7294 29.1142 46.4895 29.291 46.3127C29.4678 46.1359 29.7077 46.0366 29.9577 46.0366H37.5006C37.7506 46.0366 37.9905 46.1359 38.1673 46.3127C38.3441 46.4895 38.4434 46.7294 38.4434 46.9794V46.9794Z" fill="#AFAFAF"/>
<path d="M38.4434 56.5714C38.4434 56.8215 38.3441 57.0613 38.1673 57.2381C37.9905 57.415 37.7506 57.5143 37.5006 57.5143H29.9577C29.7077 57.5143 29.4678 57.415 29.291 57.2381C29.1142 57.0613 29.0149 56.8215 29.0149 56.5714C29.0149 56.3214 29.1142 56.0815 29.291 55.9047C29.4678 55.7279 29.7077 55.6286 29.9577 55.6286H37.5006C37.7506 55.6286 37.9905 55.7279 38.1673 55.9047C38.3441 56.0815 38.4434 56.3214 38.4434 56.5714V56.5714Z" fill="#AFAFAF"/>
<path d="M42.2149 56.5714C42.2149 56.8215 42.1155 57.0613 41.9387 57.2381C41.7619 57.415 41.5221 57.5143 41.272 57.5143H40.3291C40.0791 57.5143 39.8393 57.415 39.6625 57.2381C39.4856 57.0613 39.3863 56.8215 39.3863 56.5714C39.3863 56.3214 39.4856 56.0815 39.6625 55.9047C39.8393 55.7279 40.0791 55.6286 40.3291 55.6286H41.272C41.5221 55.6286 41.7619 55.7279 41.9387 55.9047C42.1155 56.0815 42.2149 56.3214 42.2149 56.5714V56.5714Z" fill="#3FA9F5"/>
<path d="M46.9291 56.5714C46.9291 56.8215 46.8298 57.0613 46.653 57.2381C46.4762 57.415 46.2363 57.5143 45.9863 57.5143H44.1006C43.8505 57.5143 43.6107 57.415 43.4339 57.2381C43.2571 57.0613 43.1577 56.8215 43.1577 56.5714C43.1577 56.3214 43.2571 56.0815 43.4339 55.9047C43.6107 55.7279 43.8505 55.6286 44.1006 55.6286H45.9863C46.2363 55.6286 46.4762 55.7279 46.653 55.9047C46.8298 56.0815 46.9291 56.3214 46.9291 56.5714V56.5714Z" fill="#AFAFAF"/>
<path d="M40.8006 59.7143C40.8006 59.9643 40.7012 60.2042 40.5244 60.381C40.3476 60.5578 40.1078 60.6571 39.8577 60.6571H34.672C34.4407 60.6304 34.2273 60.5195 34.0724 60.3457C33.9175 60.1718 33.8319 59.9471 33.8319 59.7143C33.8319 59.4814 33.9175 59.2567 34.0724 59.0829C34.2273 58.909 34.4407 58.7982 34.672 58.7714H39.8703C40.1176 58.7763 40.3533 58.8776 40.5271 59.0538C40.7009 59.2299 40.799 59.4669 40.8006 59.7143V59.7143Z" fill="#AFAFAF"/>
<path d="M47.7714 52.4103L48.6074 54.296H46.552C46.3019 54.296 46.0621 54.1967 45.8853 54.0199C45.7085 53.843 45.6091 53.6032 45.6091 53.3531C45.6091 53.1031 45.7085 52.8633 45.8853 52.6864C46.0621 52.5096 46.3019 52.4103 46.552 52.4103H47.7714Z" fill="#AFAFAF"/>
<path d="M32.4092 53.3531C32.4092 53.6032 32.3098 53.843 32.133 54.0199C31.9562 54.1967 31.7164 54.296 31.4663 54.296H29.9577C29.7077 54.296 29.4678 54.1967 29.291 54.0199C29.1142 53.843 29.0149 53.6032 29.0149 53.3531C29.0149 53.1031 29.1142 52.8633 29.291 52.6864C29.4678 52.5096 29.7077 52.4103 29.9577 52.4103H31.4663C31.7164 52.4103 31.9562 52.5096 32.133 52.6864C32.3098 52.8633 32.4092 53.1031 32.4092 53.3531V53.3531Z" fill="#AFAFAF"/>
<path d="M44.6663 53.3531C44.6663 53.6032 44.5669 53.843 44.3901 54.0199C44.2133 54.1967 43.9735 54.296 43.7234 54.296H34.2948C34.0448 54.296 33.805 54.1967 33.6281 54.0199C33.4513 53.843 33.352 53.6032 33.352 53.3531C33.352 53.1031 33.4513 52.8633 33.6281 52.6864C33.805 52.5096 34.0448 52.4103 34.2948 52.4103H43.7234C43.9735 52.4103 44.2133 52.5096 44.3901 52.6864C44.5669 52.8633 44.6663 53.1031 44.6663 53.3531V53.3531Z" fill="#AFAFAF"/>
<path d="M33.7291 43.7674C33.7291 44.0175 33.6298 44.2573 33.453 44.4341C33.2762 44.611 33.0364 44.7103 32.7863 44.7103H29.9577C29.7077 44.7103 29.4678 44.611 29.291 44.4341C29.1142 44.2573 29.0149 44.0175 29.0149 43.7674C29.0149 43.5174 29.1142 43.2775 29.291 43.1007C29.4678 42.9239 29.7077 42.8246 29.9577 42.8246H32.7863C33.0364 42.8246 33.2762 42.9239 33.453 43.1007C33.6298 43.2775 33.7291 43.5174 33.7291 43.7674V43.7674Z" fill="#AFAFAF"/>
<path d="M45.0434 40.5806C45.0434 40.8306 44.9441 41.0705 44.7673 41.2473C44.5905 41.4241 44.3506 41.5234 44.1006 41.5234H42.2149C41.9648 41.5234 41.725 41.4241 41.5482 41.2473C41.3713 41.0705 41.272 40.8306 41.272 40.5806C41.272 40.3305 41.3713 40.0907 41.5482 39.9139C41.725 39.737 41.9648 39.6377 42.2149 39.6377H44.1006C44.3506 39.6377 44.5905 39.737 44.7673 39.9139C44.9441 40.0907 45.0434 40.3305 45.0434 40.5806V40.5806Z" fill="#8CC63F"/>
<path d="M39.3863 37.3937C39.3863 37.6438 39.287 37.8836 39.1101 38.0604C38.9333 38.2372 38.6935 38.3366 38.4434 38.3366H36.5577C36.3077 38.3366 36.0678 38.2372 35.891 38.0604C35.7142 37.8836 35.6149 37.6438 35.6149 37.3937C35.6149 37.1436 35.7142 36.9038 35.891 36.727C36.0678 36.5502 36.3077 36.4509 36.5577 36.4509H38.4434C38.6935 36.4509 38.9333 36.5502 39.1101 36.727C39.287 36.9038 39.3863 37.1436 39.3863 37.3937V37.3937Z" fill="#AFAFAF"/>
<path d="M32.7863 34.1817C32.7863 34.4318 32.687 34.6716 32.5101 34.8484C32.3333 35.0252 32.0935 35.1246 31.8434 35.1246H29.9577C29.7077 35.1246 29.4678 35.0252 29.291 34.8484C29.1142 34.6716 29.0149 34.4318 29.0149 34.1817C29.0149 33.9317 29.1142 33.6918 29.291 33.515C29.4678 33.3382 29.7077 33.2389 29.9577 33.2389H31.8434C32.0935 33.2389 32.3333 33.3382 32.5101 33.515C32.687 33.6918 32.7863 33.9317 32.7863 34.1817V34.1817Z" fill="#AFAFAF"/>
<path d="M55.0377 36.7274C54.7193 38.8381 53.9237 40.8484 52.7114 42.6053C51.4991 44.3622 49.902 45.8195 48.0417 46.8663C47.6599 47.0887 47.3367 47.399 47.0989 47.7714V47.7211L47.0674 47.6646L47.036 47.6017V47.5263C47.033 47.5033 47.033 47.4801 47.036 47.4571V47.4571C47.0329 47.4363 47.0329 47.4151 47.036 47.3943C47.0327 47.3672 47.0327 47.3397 47.036 47.3126V47.3126V34.452C47.0295 34.3935 47.0295 34.3345 47.036 34.276V34.1943C47.0325 34.1714 47.0325 34.148 47.036 34.1251C47.0335 34.1 47.0335 34.0748 47.036 34.0497V34.0497C47.0339 34.0351 47.0339 34.0203 47.036 34.0057C47.0329 33.9891 47.0329 33.9721 47.036 33.9554V33.9554L47.08 33.9051C47.1128 33.8628 47.1508 33.8247 47.1932 33.792L47.256 33.7417L47.3252 33.6977H47.9349C50.4624 34.1956 52.8336 35.2928 54.8492 36.8971L55.0377 36.7274Z" fill="#AFAFAF"/>
<defs>
<linearGradient id="paint0_linear_7_214" x1="-6.688" y1="-9.152" x2="145.2" y2="150.04" gradientUnits="userSpaceOnUse">
<stop stop-color="#FFCD52"/>
<stop offset="1" stop-color="#F26200"/>
</linearGradient>
</defs>
</svg>
